# xmcd
#
# Track frame offsets:
#	150
#	18314
#	32917
#	50582
#	66571
#	78105
#	94670
#	111588
#	126227
#	139297
#	154299
#	174708
#	190856
#	207883
#	225410
#	245733
#	262162
#	278353
#	294095
#
# Disc length: 4172 seconds
#
# Revision: 1
# Processed by: cddbd v1.4PL0 Copyright (c) Steve Scherf et al.
# Submitted via: audiograbber 1.80
#
DISCID=18104a13
DTITLE=Various Artist - Hott Country 051
DYEAR=1900
DGENRE=
TTITLE0=Jason Allan - I Caught You Crying ( Pop Mix )
TTITLE1=Colin Arthur - Pebble In My Shoe
TTITLE2=Blue Rodeo - Somebody Waits
TTITLE3=Brent Lee Band - Our Home Town
TTITLE4=Chris Cummings - That'll Teach Her
TTITLE5=Mark Willis - Almost Doesn't Count
TTITLE6=Lace - You Could've Been Me
TTITLE7=Stephanie Beaumomt - You And Me And Love
TTITLE8=Tara Lynn Hart - Save Me
TTITLE9=Brad Paisley - Me Neither
TTITLE10=J. Gaines And The Soul attorneys - Better Man
TTITLE11=Eric Heatherly - Flowers On The Wall
TTITLE12=Judds - Stuck In Love
TTITLE13=Steve Wariner - Faith In You
TTITLE14=Alan Jackson - The Blues Man
TTITLE15=Shane Minor - I Think You're Beautiful
TTITLE16=Collin Raye/Melissa Manchester - A Mother And Father's Prayer
TTITLE17=John Berry/Wyonna - We Can't Unmake Love
TTITLE18=Faith Hill/Tim Mcgraw - Let's Make Love
EXTD=
EXTT0=
EXTT1=
EXTT2=
EXTT3=
EXTT4=
EXTT5=
EXTT6=
EXTT7=
EXTT8=
EXTT9=
EXTT10=
EXTT11=
EXTT12=
EXTT13=
EXTT14=
EXTT15=
EXTT16=
EXTT17=
EXTT18=
PLAYORDER=
